<?xml version="1.0" encoding="UTF-8"?>
<svg width="386px" height="194px" viewBox="0 0 386 194" version="1.1" xmlns="http://www.w3.org/2000/svg" xmlns:xlink="http://www.w3.org/1999/xlink">
    <title>RR-white-squash</title>
    <g id="final-logo-v1" stroke="none" stroke-width="1" fill="none" fill-rule="evenodd">
        <g id="RR-white-squash" fill="#FFFFFF" fill-rule="nonzero">
            <g id="Group-7">
                <path d="M11.6,192 L11.6,163.47 L34.82,163.47 C37.7,163.35 39.965,163.83 41.615,164.91 C43.265,165.99 44.525,167.415 45.395,169.185 C46.265,170.955 46.835,172.965 47.105,175.215 C47.375,177.465 47.57,179.73 47.69,182.01 C47.75,182.67 47.81,183.45 47.87,184.35 C47.93,185.25 48.005,186.165 48.095,187.095 C48.185,188.025 48.335,188.925 48.545,189.795 C48.755,190.665 49.04,191.4 49.4,192 L56.15,192 C55.49,191.22 54.965,190.125 54.575,188.715 C54.185,187.305 53.9,185.805 53.72,184.215 C53.54,182.625 53.42,181.05 53.36,179.49 C53.3,177.93 53.24,176.61 53.18,175.53 C53.06,173.61 52.805,171.825 52.415,170.175 C52.025,168.525 51.395,167.07 50.525,165.81 C49.655,164.55 48.53,163.515 47.15,162.705 C45.77,161.895 44.03,161.34 41.93,161.04 L41.93,160.86 C46.07,160.02 49.19,158.1 51.29,155.1 C53.39,152.1 54.44,148.56 54.44,144.48 C54.44,141.6 53.915,139.095 52.865,136.965 C51.815,134.835 50.405,133.095 48.635,131.745 C46.865,130.395 44.795,129.39 42.425,128.73 C40.055,128.07 37.55,127.74 34.91,127.74 L5.48,127.74 L5.48,192 L11.6,192 Z M34.46,158.25 L11.6,158.25 L11.6,132.96 L34.46,132.96 C39.14,132.96 42.62,134.1 44.9,136.38 C47.18,138.66 48.32,141.78 48.32,145.74 C48.32,147.72 47.945,149.475 47.195,151.005 C46.445,152.535 45.44,153.84 44.18,154.92 C42.92,156 41.45,156.825 39.77,157.395 C38.09,157.965 36.32,158.25 34.46,158.25 Z M92.42,193.26 C97.46,193.26 101.87,192.345 105.65,190.515 C109.43,188.685 112.58,186.24 115.1,183.18 C117.62,180.12 119.51,176.58 120.77,172.56 C122.03,168.54 122.66,164.31 122.66,159.87 C122.66,155.43 122.03,151.2 120.77,147.18 C119.51,143.16 117.62,139.605 115.1,136.515 C112.58,133.425 109.43,130.965 105.65,129.135 C101.87,127.305 97.46,126.39 92.42,126.39 C87.38,126.39 82.955,127.305 79.145,129.135 C75.335,130.965 72.17,133.425 69.65,136.515 C67.13,139.605 65.24,143.16 63.98,147.18 C62.72,151.2 62.09,155.43 62.09,159.87 C62.09,164.31 62.72,168.54 63.98,172.56 C65.24,176.58 67.13,180.12 69.65,183.18 C72.17,186.24 75.335,188.685 79.145,190.515 C82.955,192.345 87.38,193.26 92.42,193.26 Z M92.42,188.13 C88.16,188.13 84.5,187.32 81.44,185.7 C78.38,184.08 75.875,181.935 73.925,179.265 C71.975,176.595 70.535,173.565 69.605,170.175 C68.675,166.785 68.21,163.35 68.21,159.87 C68.21,156.33 68.675,152.88 69.605,149.52 C70.535,146.16 71.975,143.145 73.925,140.475 C75.875,137.805 78.38,135.66 81.44,134.04 C84.5,132.42 88.16,131.61 92.42,131.61 C96.68,131.61 100.325,132.42 103.355,134.04 C106.385,135.66 108.875,137.805 110.825,140.475 C112.775,143.145 114.215,146.16 115.145,149.52 C116.075,152.88 116.54,156.33 116.54,159.87 C116.54,163.35 116.075,166.785 115.145,170.175 C114.215,173.565 112.775,176.595 110.825,179.265 C108.875,181.935 106.385,184.08 103.355,185.7 C100.325,187.32 96.68,188.13 92.42,188.13 Z M159.38,192 C162.86,192 165.845,191.685 168.335,191.055 C170.825,190.425 172.925,189.615 174.635,188.625 C176.345,187.635 177.71,186.48 178.73,185.16 C179.75,183.84 180.53,182.505 181.07,181.155 C181.61,179.805 181.97,178.485 182.15,177.195 C182.33,175.905 182.42,174.75 182.42,173.73 C182.42,169.53 181.19,166.005 178.73,163.155 C176.27,160.305 172.97,158.61 168.83,158.07 L168.83,157.89 C170.51,157.53 172.025,156.9 173.375,156 C174.725,155.1 175.895,154.005 176.885,152.715 C177.875,151.425 178.64,149.985 179.18,148.395 C179.72,146.805 179.99,145.17 179.99,143.49 C179.99,140.49 179.42,137.985 178.28,135.975 C177.14,133.965 175.625,132.345 173.735,131.115 C171.845,129.885 169.655,129.015 167.165,128.505 C164.675,127.995 162.08,127.74 159.38,127.74 L132.2,127.74 L132.2,192 L159.38,192 Z M159.38,155.91 L138.32,155.91 L138.32,132.96 L159.38,132.96 C169.04,132.96 173.87,136.98 173.87,145.02 C173.87,146.52 173.57,147.93 172.97,149.25 C172.37,150.57 171.47,151.725 170.27,152.715 C169.07,153.705 167.57,154.485 165.77,155.055 C163.97,155.625 161.84,155.91 159.38,155.91 Z M159.38,186.78 L138.32,186.78 L138.32,161.13 L159.38,161.13 C164.84,161.13 169.025,162.165 171.935,164.235 C174.845,166.305 176.3,169.41 176.3,173.55 C176.3,176.13 175.85,178.275 174.95,179.985 C174.05,181.695 172.82,183.06 171.26,184.08 C169.7,185.1 167.9,185.805 165.86,186.195 C163.82,186.585 161.66,186.78 159.38,186.78 Z M219.14,193.26 C224.18,193.26 228.59,192.345 232.37,190.515 C236.15,188.685 239.3,186.24 241.82,183.18 C244.34,180.12 246.23,176.58 247.49,172.56 C248.75,168.54 249.38,164.31 249.38,159.87 C249.38,155.43 248.75,151.2 247.49,147.18 C246.23,143.16 244.34,139.605 241.82,136.515 C239.3,133.425 236.15,130.965 232.37,129.135 C228.59,127.305 224.18,126.39 219.14,126.39 C214.1,126.39 209.675,127.305 205.865,129.135 C202.055,130.965 198.89,133.425 196.37,136.515 C193.85,139.605 191.96,143.16 190.7,147.18 C189.44,151.2 188.81,155.43 188.81,159.87 C188.81,164.31 189.44,168.54 190.7,172.56 C191.96,176.58 193.85,180.12 196.37,183.18 C198.89,186.24 202.055,188.685 205.865,190.515 C209.675,192.345 214.1,193.26 219.14,193.26 Z M219.14,188.13 C214.88,188.13 211.22,187.32 208.16,185.7 C205.1,184.08 202.595,181.935 200.645,179.265 C198.695,176.595 197.255,173.565 196.325,170.175 C195.395,166.785 194.93,163.35 194.93,159.87 C194.93,156.33 195.395,152.88 196.325,149.52 C197.255,146.16 198.695,143.145 200.645,140.475 C202.595,137.805 205.1,135.66 208.16,134.04 C211.22,132.42 214.88,131.61 219.14,131.61 C223.4,131.61 227.045,132.42 230.075,134.04 C233.105,135.66 235.595,137.805 237.545,140.475 C239.495,143.145 240.935,146.16 241.865,149.52 C242.795,152.88 243.26,156.33 243.26,159.87 C243.26,163.35 242.795,166.785 241.865,170.175 C240.935,173.565 239.495,176.595 237.545,179.265 C235.595,181.935 233.105,184.08 230.075,185.7 C227.045,187.32 223.4,188.13 219.14,188.13 Z M280.52,192 L280.52,132.96 L302.93,132.96 L302.93,127.74 L252.08,127.74 L252.08,132.96 L274.4,132.96 L274.4,192 L280.52,192 Z M315.53,192 L315.53,127.74 L309.41,127.74 L309.41,192 L315.53,192 Z M356.21,193.26 C359.99,193.26 363.425,192.66 366.515,191.46 C369.605,190.26 372.29,188.55 374.57,186.33 C376.85,184.11 378.71,181.41 380.15,178.23 C381.59,175.05 382.52,171.48 382.94,167.52 L376.82,167.52 C376.52,170.4 375.83,173.085 374.75,175.575 C373.67,178.065 372.26,180.24 370.52,182.1 C368.78,183.96 366.71,185.43 364.31,186.51 C361.91,187.59 359.21,188.13 356.21,188.13 C351.95,188.13 348.29,187.32 345.23,185.7 C342.17,184.08 339.665,181.935 337.715,179.265 C335.765,176.595 334.325,173.565 333.395,170.175 C332.465,166.785 332,163.35 332,159.87 C332,156.33 332.465,152.88 333.395,149.52 C334.325,146.16 335.765,143.145 337.715,140.475 C339.665,137.805 342.17,135.66 345.23,134.04 C348.29,132.42 351.95,131.61 356.21,131.61 C358.55,131.61 360.785,131.955 362.915,132.645 C365.045,133.335 366.995,134.34 368.765,135.66 C370.535,136.98 372.035,138.615 373.265,140.565 C374.495,142.515 375.38,144.72 375.92,147.18 L382.04,147.18 C381.62,143.82 380.615,140.85 379.025,138.27 C377.435,135.69 375.455,133.515 373.085,131.745 C370.715,129.975 368.075,128.64 365.165,127.74 C362.255,126.84 359.27,126.39 356.21,126.39 C351.17,126.39 346.745,127.305 342.935,129.135 C339.125,130.965 335.96,133.425 333.44,136.515 C330.92,139.605 329.03,143.16 327.77,147.18 C326.51,151.2 325.88,155.43 325.88,159.87 C325.88,164.31 326.51,168.54 327.77,172.56 C329.03,176.58 330.92,180.12 333.44,183.18 C335.96,186.24 339.125,188.685 342.935,190.515 C346.745,192.345 351.17,193.26 356.21,193.26 Z" id="ROBOTIC"></path>
                <g id="Group-8">
                    <path d="M37.7222222,1 L38.5356564,1.00202864 C54.7369146,1.0831743 66.8926065,3.5986898 75.0027322,8.54857513 C85.4860352,14.986399 90.7276867,24.1444301 90.7276867,36.0226684 C90.7276867,48.7169689 83.6897389,57.4896373 69.6138434,62.3406736 L69.6138434,62.3406736 L97,106 L57.1575592,106 L38.9590164,68.5971503 L38.8952135,68.3780225 C38.7119848,67.773532 38.4240538,67.007844 38.0314208,66.0809585 C37.5897086,65.0382124 37.0449302,63.7914508 36.3970856,62.3406736 L36.3970856,62.3406736 L36.6621129,69.2772021 L36.6621129,106 L0,106 L0,1 L37.7222222,1 Z M38.1639344,24.5977979 L36.8387978,24.5977979 L36.8387978,49.6237047 L39.3123862,49.6237047 C43.5528233,49.6237047 47.0865209,48.376943 49.9134791,45.8834197 C52.7404372,43.3898964 54.1539162,40.2163212 54.1539162,36.3626943 C54.1539162,28.5194301 48.8239223,24.5977979 38.1639344,24.5977979 L38.1639344,24.5977979 Z" id="Combined-Shape"></path>
                    <path d="M144.850937,0 C160.467632,0 172.89665,4.90806754 182.13799,14.7242026 C191.37933,24.5403377 196,37.7560976 196,54.3714822 C196,70.2664165 191.291596,83.1894934 181.874787,93.1407129 C172.516468,103.046904 160.321408,108 145.289608,108 C131.954003,108 120.519307,104.195122 110.98552,96.5853659 C98.9951732,86.9493433 93,72.4953096 93,53.2232645 C93,34.7617261 99.2583759,20.6454034 111.775128,10.8742964 C121.074957,3.62476548 132.100227,0 144.850937,0 Z M145.026405,26.2739212 C140.698183,26.2739212 137.247303,28.750469 134.673765,33.7035647 C132.158717,38.2964353 130.901193,45.0506567 130.901193,53.9662289 C130.901193,62.7467167 132.085605,69.5572233 134.454429,74.3977486 C136.823254,79.2382739 140.113288,81.6585366 144.324532,81.6585366 C148.652754,81.6585366 151.986655,79.272045 154.326235,74.4990619 C156.782794,69.7260788 158.011073,63.0844278 158.011073,54.5741088 C158.011073,35.7073171 153.682851,26.2739212 145.026405,26.2739212 Z" id="Combined-Shape"></path>
                    <path d="M255.22161,108 C261.608967,108 268.838295,106.739212 276.909592,104.217636 L276.909592,104.217636 L279,74.0938086 C272.670709,78.5966229 266.370452,80.84803 260.099228,80.84803 C256.441014,80.84803 253.189269,80.2401501 250.343991,79.0243902 C247.498714,77.8086304 245.103455,76.0525328 243.158214,73.7560976 C241.212973,71.4596623 239.717751,68.6454034 238.672547,65.3133208 C237.627343,61.9812383 237.104741,58.1988743 237.104741,53.9662289 C237.104741,45.2307692 239.195149,38.3864916 243.375965,33.4333959 C247.556781,28.5253283 253.363469,26.0712946 260.796031,26.0712946 C266.486586,26.0712946 272.031974,28.1651032 277.432194,32.3527205 L277.432194,32.3527205 L277.432194,2.56660413 C271.335171,0.855534709 265.354282,0 259.489526,0 C241.430724,0 227.001103,4.95309568 216.200662,14.8592871 C205.400221,24.8105066 200,38.0037523 200,54.4390244 C200,72 205.748622,85.575985 217.245865,95.1669794 C227.523705,103.722326 240.182286,108 255.22161,108 Z" id="Path"></path>
                    <polygon id="Path" points="322.804943 106 321.834069 57.5803109 346.282436 106 386 106 352.990291 51.6638601 382.381289 1 343.546337 1 321.834069 46.0194301 322.804943 1 286 1 286 106"></polygon>
                </g>
            </g>
        </g>
    </g>
</svg>