<?xml version="1.0" encoding="UTF-8"?>
<svg width="931px" height="107px" viewBox="0 0 931 107" version="1.1" xmlns="http://www.w3.org/2000/svg" xmlns:xlink="http://www.w3.org/1999/xlink">
    <title>RR-white-side</title>
    <g id="final-logo-v1" stroke="none" stroke-width="1" fill="none" fill-rule="evenodd">
        <g id="RR-white-side" fill="#FFFFFF" fill-rule="nonzero">
            <path d="M420.454707,106 L420.454707,66.4859944 L452.53286,66.4859944 C456.511545,66.3197946 459.640616,66.9845938 461.920071,68.4803922 C464.199526,69.9761905 465.940201,71.9498133 467.142096,74.4012605 C468.343991,76.8527077 469.131439,79.6365546 469.50444,82.7528011 C469.877442,85.8690476 470.146832,89.0060691 470.312611,92.1638655 C470.3955,93.0779645 470.47839,94.1582633 470.561279,95.4047619 C470.644168,96.6512605 470.74778,97.9185341 470.872114,99.2065826 C470.996448,100.494631 471.203671,101.74113 471.493783,102.946078 C471.783896,104.151027 472.17762,105.169001 472.674956,106 L482,106 C481.088218,104.919701 480.362937,103.403128 479.824156,101.45028 C479.285376,99.4974323 478.891652,97.4199346 478.642984,95.2177871 C478.394316,93.0156396 478.228538,90.834267 478.145648,88.6736695 C478.062759,86.5130719 477.97987,84.6848739 477.89698,83.1890756 C477.731202,80.5298786 477.378922,78.0576564 476.840142,75.772409 C476.301362,73.4871615 475.431024,71.4719888 474.22913,69.7268908 C473.027235,67.9817927 471.473061,66.5483193 469.566607,65.4264706 C467.660154,64.3046218 465.256365,63.5359477 462.35524,63.1204482 L462.35524,62.8711485 C468.0746,61.7077498 472.384843,59.0485528 475.285968,54.8935574 C478.187093,50.7385621 479.637655,45.8356676 479.637655,40.1848739 C479.637655,36.1960784 478.912374,32.7266573 477.461812,29.7766106 C476.011249,26.826564 474.063351,24.4166667 471.618117,22.5469188 C469.172883,20.6771709 466.313203,19.2852474 463.039076,18.3711485 C459.76495,17.4570495 456.304322,17 452.657194,17 L412,17 L412,106 L420.454707,106 Z M451.75,60 L420,60 L420,25 L451.75,25 C458.25,25 463.083333,26.5776987 466.25,29.7330961 C469.416667,32.8884935 471,37.2064057 471,42.6868327 C471,45.4270463 470.479167,47.8558719 469.4375,49.9733096 C468.395833,52.0907473 467,53.8967972 465.25,55.3914591 C463.5,56.886121 461.458333,58.0278766 459.125,58.816726 C456.791667,59.6055753 454.333333,60 451.75,60 Z M531.561664,107 C538.468053,107 544.511144,105.74114 549.690936,103.223419 C554.870728,100.705698 559.187221,97.3418573 562.640416,93.1318977 C566.093611,88.9219381 568.683507,84.0515926 570.410104,78.5208614 C572.136701,72.9901301 573,67.17048 573,61.0619112 C573,54.9533423 572.136701,49.1336922 570.410104,43.602961 C568.683507,38.0722297 566.093611,33.1812472 562.640416,28.9300135 C559.187221,24.6787797 554.870728,21.2943024 549.690936,18.7765814 C544.511144,16.2588605 538.468053,15 531.561664,15 C524.655275,15 518.59163,16.2588605 513.370728,18.7765814 C508.149827,21.2943024 503.812779,24.6787797 500.359584,28.9300135 C496.906389,33.1812472 494.316493,38.0722297 492.589896,43.602961 C490.863299,49.1336922 490,54.9533423 490,61.0619112 C490,67.17048 490.863299,72.9901301 492.589896,78.5208614 C494.316493,84.0515926 496.906389,88.9219381 500.359584,93.1318977 C503.812779,97.3418573 508.149827,100.705698 513.370728,103.223419 C518.59163,105.74114 524.655275,107 531.561664,107 Z M531.061453,100 C525.243948,100 520.24581,98.8821656 516.067039,96.6464968 C511.888268,94.410828 508.467412,91.4506369 505.804469,87.7659236 C503.141527,84.0812102 501.175047,79.8996815 499.905028,75.2213376 C498.635009,70.5429936 498,65.8025478 498,61 C498,56.1146497 498.635009,51.3535032 499.905028,46.7165605 C501.175047,42.0796178 503.141527,37.9187898 505.804469,34.2340764 C508.467412,30.5493631 511.888268,27.589172 516.067039,25.3535032 C520.24581,23.1178344 525.243948,22 531.061453,22 C536.878957,22 541.856611,23.1178344 545.994413,25.3535032 C550.132216,27.589172 553.532588,30.5493631 556.195531,34.2340764 C558.858473,37.9187898 560.824953,42.0796178 562.094972,46.7165605 C563.364991,51.3535032 564,56.1146497 564,61 C564,65.8025478 563.364991,70.5429936 562.094972,75.2213376 C560.824953,79.8996815 558.858473,84.0812102 556.195531,87.7659236 C553.532588,91.4506369 550.132216,94.410828 545.994413,96.6464968 C541.856611,98.8821656 536.878957,100 531.061453,100 Z M623.344086,106 C628.125448,106 632.226703,105.563725 635.647849,104.691176 C639.068996,103.818627 641.954301,102.696779 644.303763,101.32563 C646.653226,99.9544818 648.528674,98.3548086 649.930108,96.5266106 C651.331541,94.6984127 652.403226,92.8494398 653.145161,90.9796919 C653.887097,89.109944 654.38172,87.281746 654.629032,85.495098 C654.876344,83.70845 655,82.1087768 655,80.6960784 C655,74.879085 653.310036,69.9969655 649.930108,66.0497199 C646.550179,62.1024743 642.016129,59.754902 636.327957,59.0070028 L636.327957,58.7577031 C638.636201,58.2591036 640.717742,57.3865546 642.572581,56.140056 C644.427419,54.8935574 646.034946,53.3769841 647.395161,51.5903361 C648.755376,49.8036881 649.806452,47.8092904 650.548387,45.6071429 C651.290323,43.4049953 651.66129,41.1405229 651.66129,38.8137255 C651.66129,34.6587302 650.878136,31.1893091 649.311828,28.4054622 C647.74552,25.6216153 645.663978,23.3779178 643.067204,21.6743697 C640.47043,19.9708217 637.46147,18.765873 634.040323,18.0595238 C630.619176,17.3531746 627.053763,17 623.344086,17 L586,17 L586,106 L623.344086,106 Z M623.435443,56 L595,56 L595,24 L623.435443,24 C636.478481,24 643,29.6052288 643,40.8156863 C643,42.9071895 642.594937,44.8732026 641.78481,46.7137255 C640.974684,48.5542484 639.759494,50.1647059 638.139241,51.545098 C636.518987,52.9254902 634.493671,54.0130719 632.063291,54.8078431 C629.632911,55.6026144 626.756962,56 623.435443,56 Z M623.834123,98 L595,98 L595,63 L623.834123,63 C631.309637,63 637.039494,64.4122807 641.023697,67.2368421 C645.007899,70.0614035 647,74.2982456 647,79.9473684 C647,83.4678363 646.383886,86.3947368 645.151659,88.7280702 C643.919431,91.0614035 642.235387,92.9239766 640.099526,94.3157895 C637.963665,95.7076023 635.49921,96.6695906 632.706161,97.2017544 C629.913112,97.7339181 626.955766,98 623.834123,98 Z M706.561664,107 C713.468053,107 719.511144,105.74114 724.690936,103.223419 C729.870728,100.705698 734.187221,97.3418573 737.640416,93.1318977 C741.093611,88.9219381 743.683507,84.0515926 745.410104,78.5208614 C747.136701,72.9901301 748,67.17048 748,61.0619112 C748,54.9533423 747.136701,49.1336922 745.410104,43.602961 C743.683507,38.0722297 741.093611,33.1812472 737.640416,28.9300135 C734.187221,24.6787797 729.870728,21.2943024 724.690936,18.7765814 C719.511144,16.2588605 713.468053,15 706.561664,15 C699.655275,15 693.59163,16.2588605 688.370728,18.7765814 C683.149827,21.2943024 678.812779,24.6787797 675.359584,28.9300135 C671.906389,33.1812472 669.316493,38.0722297 667.589896,43.602961 C665.863299,49.1336922 665,54.9533423 665,61.0619112 C665,67.17048 665.863299,72.9901301 667.589896,78.5208614 C669.316493,84.0515926 671.906389,88.9219381 675.359584,93.1318977 C678.812779,97.3418573 683.149827,100.705698 688.370728,103.223419 C693.59163,105.74114 699.655275,107 706.561664,107 Z M705.061453,100 C699.243948,100 694.24581,98.8821656 690.067039,96.6464968 C685.888268,94.410828 682.467412,91.4506369 679.804469,87.7659236 C677.141527,84.0812102 675.175047,79.8996815 673.905028,75.2213376 C672.635009,70.5429936 672,65.8025478 672,61 C672,56.1146497 672.635009,51.3535032 673.905028,46.7165605 C675.175047,42.0796178 677.141527,37.9187898 679.804469,34.2340764 C682.467412,30.5493631 685.888268,27.589172 690.067039,25.3535032 C694.24581,23.1178344 699.243948,22 705.061453,22 C710.878957,22 715.856611,23.1178344 719.994413,25.3535032 C724.132216,27.589172 727.532588,30.5493631 730.195531,34.2340764 C732.858473,37.9187898 734.824953,42.0796178 736.094972,46.7165605 C737.364991,51.3535032 738,56.1146497 738,61 C738,65.8025478 737.364991,70.5429936 736.094972,75.2213376 C734.824953,79.8996815 732.858473,84.0812102 730.195531,87.7659236 C727.532588,91.4506369 724.132216,94.410828 719.994413,96.6464968 C715.856611,98.8821656 710.878957,100 705.061453,100 Z M789.150442,106 L789.150442,24.2296919 L820,24.2296919 L820,17 L750,17 L750,24.2296919 L780.725664,24.2296919 L780.725664,106 L789.150442,106 Z M838,106 L838,17 L829,17 L829,106 L838,106 Z M894.460568,107 C899.62776,107 904.323344,106.174518 908.547319,104.523553 C912.771293,102.872589 916.44164,100.519964 919.55836,97.4656797 C922.675079,94.4113952 925.217666,90.696725 927.18612,86.3216689 C929.154574,81.9466128 930.425868,77.0349933 931,71.5868102 L922.634069,71.5868102 C922.223975,75.5491252 921.280757,79.2431584 919.804416,82.6689098 C918.328076,86.0946613 916.400631,89.0870345 914.022082,91.6460296 C911.643533,94.2050247 908.81388,96.2274563 905.533123,97.7133244 C902.252366,99.1991925 898.561514,99.9421265 894.460568,99.9421265 C888.637224,99.9421265 883.634069,98.8277254 879.451104,96.5989233 C875.268139,94.3701211 871.843849,91.419022 869.178233,87.7456258 C866.512618,84.0722297 864.544164,79.9035442 863.272871,75.2395693 C862.001577,70.5755944 861.365931,65.8497084 861.365931,61.0619112 C861.365931,56.1915657 862.001577,51.4450426 863.272871,46.8223419 C864.544164,42.1996411 866.512618,38.0515926 869.178233,34.3781965 C871.843849,30.7048004 875.268139,27.7537012 879.451104,25.5248991 C883.634069,23.2960969 888.637224,22.1816958 894.460568,22.1816958 C897.659306,22.1816958 900.714511,22.6563481 903.626183,23.6056528 C906.537855,24.5549574 909.20347,25.9376402 911.623028,27.7537012 C914.042587,29.5697622 916.09306,31.8192014 917.774448,34.5020188 C919.455836,37.1848362 920.665615,40.2184836 921.403785,43.602961 L929.769716,43.602961 C929.195584,38.9802602 927.821767,34.8941229 925.648265,31.3445491 C923.474763,27.7949753 920.768139,24.8026021 917.528391,22.3674293 C914.288644,19.9322566 910.679811,18.0955585 906.701893,16.8573351 C902.723975,15.6191117 898.643533,15 894.460568,15 C887.570978,15 881.522082,16.2588605 876.31388,18.7765814 C871.105678,21.2943024 866.77918,24.6787797 863.334385,28.9300135 C859.88959,33.1812472 857.305994,38.0722297 855.583596,43.602961 C853.861199,49.1336922 853,54.9533423 853,61.0619112 C853,67.17048 853.861199,72.9901301 855.583596,78.5208614 C857.305994,84.0515926 859.88959,88.9219381 863.334385,93.1318977 C866.77918,97.3418573 871.105678,100.705698 876.31388,103.223419 C881.522082,105.74114 887.570978,107 894.460568,107 Z" id="ROBOTIC"></path>
            <g id="Group-8">
                <path d="M37.7222222,2 L38.5491565,2.00207686 C54.7436674,2.08376655 66.8948593,4.57530225 75.0027322,9.47668394 C85.4860352,15.8531952 90.7276867,24.9240069 90.7276867,36.6891192 C90.7276867,49.2625216 83.6897389,57.9516408 69.6138434,62.7564767 L69.6138434,62.7564767 L97,106 L57.1575592,106 L38.9590164,68.9533679 L38.8952135,68.736327 C38.7119848,68.1375936 38.4240538,67.3791979 38.0314208,66.4611399 C37.5897086,65.4283247 37.0449302,64.193437 36.3970856,62.7564767 L36.3970856,62.7564767 L36.6621129,69.626943 L36.6621129,106 L0,106 L0,2 L37.7222222,2 Z M38.1639344,25.373057 L36.8387978,25.373057 L36.8387978,50.1606218 L39.3123862,50.1606218 C43.5528233,50.1606218 47.0865209,48.925734 49.9134791,46.4559585 C52.7404372,43.9861831 54.1539162,40.8428325 54.1539162,37.0259067 C54.1539162,29.2573402 48.8239223,25.373057 38.1639344,25.373057 L38.1639344,25.373057 Z" id="Combined-Shape"></path>
                <path d="M144.850937,0 C160.467632,0 172.89665,4.86262247 182.13799,14.5878674 C191.37933,24.3131124 196,37.4065041 196,53.8680425 C196,69.6158015 191.291596,82.4192203 181.874787,92.2782989 C172.516468,102.092766 160.321408,107 145.289608,107 C131.954003,107 120.519307,103.230352 110.98552,95.6910569 C98.9951732,86.1442568 93,71.8240567 93,52.7304565 C93,34.4398582 99.2583759,20.4542422 111.775128,10.7736085 C121.074957,3.59120284 132.100227,0 144.850937,0 Z M145.026405,26.0306442 C140.698183,26.0306442 137.247303,28.484261 134.673765,33.3914947 C132.158717,37.9418386 130.901193,44.633521 130.901193,53.4665416 C130.901193,62.1657286 132.085605,68.9131749 134.454429,73.7088806 C136.823254,78.5045862 140.113288,80.902439 144.324532,80.902439 C148.652754,80.902439 151.986655,78.5380446 154.326235,73.8092558 C156.782794,69.080467 158.011073,62.5003127 158.011073,54.068793 C158.011073,35.3766938 153.682851,26.0306442 145.026405,26.0306442 Z" id="Combined-Shape"></path>
                <path d="M255.22161,107 C261.608967,107 268.838295,105.750886 276.909592,103.252658 L276.909592,103.252658 L279,73.4077548 C272.670709,77.8688764 266.370452,80.0994371 260.099228,80.0994371 C256.441014,80.0994371 253.189269,79.4971857 250.343991,78.2926829 C247.498714,77.0881801 245.103455,75.3483427 243.158214,73.0731707 C241.212973,70.7979987 239.717751,68.0097978 238.672547,64.7085679 C237.627343,61.4073379 237.104741,57.6599958 237.104741,53.4665416 C237.104741,44.8119658 239.195149,38.0310611 243.375965,33.1238274 C247.556781,28.2612049 253.363469,25.8298937 260.796031,25.8298937 C266.486586,25.8298937 272.031974,27.9043152 277.432194,32.0531582 L277.432194,32.0531582 L277.432194,2.54283927 C271.335171,0.847613092 265.354282,0 259.489526,0 C241.430724,0 227.001103,4.90723369 216.200662,14.7217011 C205.400221,24.5807797 200,37.6518657 200,53.9349593 C200,71.3333333 205.748622,84.7836148 217.245865,94.2858036 C227.523705,102.761935 240.182286,107 255.22161,107 Z" id="Path"></path>
                <polygon id="Path" points="322.804943 106 321.834069 58.0414508 346.282436 106 386 106 352.990291 52.1813472 382.381289 2 343.546337 2 321.834069 46.5906736 322.804943 2 286 2 286 106"></polygon>
            </g>
        </g>
    </g>
</svg>